<?xml version="1.0" encoding="utf-8"?>
<!-- Generator: Adobe Illustrator 21.1.0, SVG Export Plug-In . SVG Version: 6.00 Build 0)  -->
<svg version="1.1" id="Layer_1" xmlns="http://www.w3.org/2000/svg" xmlns:xlink="http://www.w3.org/1999/xlink" x="0px" y="0px"
	 viewBox="0 0 512 512" style="enable-background:new 0 0 512 512;" xml:space="preserve">
<style type="text/css">
	.st0{fill:#FE3333;}
</style>
<path class="st0" d="M505.8,262.4c-6.2-9.9-16.3-16.8-27.8-18.8s-23.4,1-32.6,8.2L409,281c-6-6.4-14-10.8-22.8-12.3
	c-11.5-2-23.4,1-32.6,8.2l-21.4,16.9h-55c-8.8,0-17.6-2.1-25.4-6.1l-19.6-10c-16.5-8.4-35-12.5-53.5-11.8
	c-25.6,1-50.2,11.1-69.1,28.4L4.2,390.9c-4.9,4.5-5.6,12.1-1.5,17.4l55.2,71.4c2.5,3.3,6.3,5,10.2,5c2.3,0,4.7-0.6,6.8-2l66.4-41.5
	c4.7-3,10.2-4.5,15.8-4.5h154.2c21.9,0,43.4-7.5,60.5-21.2l124.7-99.4C512.8,303.2,516.8,280.1,505.8,262.4z M369.6,297.1
	c3.5-2.7,7.8-3.8,12.1-3c2.6,0.5,5,1.6,7,3.2l-21.6,17.3c-1.9-3.6-4.4-6.9-7.3-9.7L369.6,297.1z M480.4,296l-124.7,99.4
	c-12.6,10-28.4,15.5-44.4,15.5H157.2c-10.4,0-20.6,2.9-29.4,8.4l-56.5,35.4l-40.8-52.8l96.8-88.6c14.4-13.2,33.2-20.9,52.7-21.7
	c14.1-0.5,28.2,2.6,40.8,9l19.6,10c11.4,5.8,24.3,8.9,37.1,8.9h55.4c7.3,0,13.2,5.9,13.2,13.2c0,7-5.5,12.8-12.5,13.2l-154.2,9
	c-7.1,0.4-12.5,6.5-12.1,13.6s6.5,12.5,13.6,12.1l154.2-9c16.1-0.9,29.5-11.6,34.6-26.1l91.9-73.6c3.5-2.7,7.8-3.8,12.1-3
	c4.3,0.8,8,3.3,10.4,7C488,282.5,486.5,291.2,480.4,296z"/>
<path class="st0" d="M253.2,224.5c54.4,0,98.6-44.2,98.6-98.6s-44.2-98.6-98.6-98.6s-98.6,44.2-98.6,98.6S198.9,224.5,253.2,224.5z
	 M253.2,53.1c40.1,0,72.8,32.7,72.8,72.8s-32.7,72.8-72.8,72.8s-72.8-32.7-72.8-72.8C180.4,85.7,213.1,53.1,253.2,53.1z"/>
<g>
	<path class="st0" d="M220.4,126.7h7.4V85.6c0-2.3,1.7-4.3,4-4.6c3.1-0.5,6.2-0.8,9.4-1.1c4.6-0.4,9.5-0.6,14.6-0.6
		c5.4,0,10.5,0.4,15.5,1.3c4.9,0.9,9.2,2.4,12.9,4.7s6.6,5.4,8.9,9.4c2.2,4,3.3,8,3.3,14.2c0,5.7-1.1,10.5-3.3,14.5
		c-2.2,4-5.2,7.3-8.8,9.7c-3.6,2.5-7.8,4.3-12.5,5.4c-4.7,1.1-9.4,1.7-14.2,1.7h-10.3v8.2h20c2.6,0,4.7,2.1,4.7,4.7v3.9
		c0,2.6-2.1,4.7-4.7,4.7h-20V174c0,2.6-2.1,4.7-4.7,4.7h-10c-2.6,0-4.7-2.1-4.7-4.7v-12.5h-7.4c-2.6,0-4.7-2.1-4.7-4.7v-3.9
		c0-2.6,2.1-4.7,4.7-4.7h7.4V140h-7.4c-2.6,0-4.7-2.1-4.7-4.7v-3.9C215.7,128.8,217.8,126.7,220.4,126.7z M247.1,125.8h7.8
		c2.8,0,5.5-0.3,8.1-0.9c2.6-0.6,4.8-1.5,6.7-2.8c1.9-1.3,3.4-3,4.5-5s1.6-4.6,1.6-7.6c0-5.6-1.7-8.4-5.2-10.5
		c-3.5-2.2-7.9-3.3-13.3-3.3c-2,0-3.9,0-5.7,0.1c0,0,0,0-0.1,0c-2.5,0.1-4.4,2.2-4.4,4.7L247.1,125.8L247.1,125.8z"/>
</g>
</svg>
