<?xml version="1.0" encoding="utf-8"?>
<!-- Generator: Adobe Illustrator 21.1.0, SVG Export Plug-In . SVG Version: 6.00 Build 0)  -->
<svg version="1.1" id="Capa_1" xmlns="http://www.w3.org/2000/svg" xmlns:xlink="http://www.w3.org/1999/xlink" x="0px" y="0px"
	 viewBox="0 0 512 512" style="enable-background:new 0 0 512 512;" xml:space="preserve">
<style type="text/css">
	.st0{fill:#CCCCCC;}
	.st1{fill:none;stroke:#CCCCCC;stroke-width:32;stroke-linecap:round;stroke-miterlimit:10;}
	.st2{fill:none;stroke:#CCCCCC;stroke-width:32;stroke-linecap:round;stroke-linejoin:round;stroke-miterlimit:10;}
</style>
<path class="st0" d="M462.7,17.1H49.3C22.1,17.1,0,39.2,0,66.4v308.2c0,27.2,22.1,49.3,49.3,49.3H175V462h-55.4
	c-9.1,0-16.4,7.4-16.4,16.4s7.4,16.4,16.4,16.4H175H337h55.4c9.1,0,16.4-7.4,16.4-16.4s-7.4-16.4-16.4-16.4H337v-38.2h125.8
	c27.2,0,49.3-22.1,49.3-49.3V66.4C512,39.2,489.9,17.1,462.7,17.1z M49.3,50h413.5c9.1,0,16.4,7.4,16.4,16.4v243.3H32.8V66.4
	C32.8,57.3,40.2,50,49.3,50z M304.1,462h-96.2v-38.2h96.2V462z M462.7,391H49.3c-9.1,0-16.4-7.4-16.4-16.4v-32.1h446.3v32.1
	C479.2,383.7,471.8,391,462.7,391z"/>
<line class="st1" x1="78" y1="143" x2="288" y2="143"/>
<line class="st1" x1="78" y1="203" x2="258" y2="203"/>
<line class="st1" x1="78" y1="263" x2="288" y2="263"/>
<polyline class="st2" points="328,192 362.5,226.5 433.5,155.5 "/>
</svg>
