<?xml version="1.0" encoding="utf-8"?>
<!-- Generator: Adobe Illustrator 21.1.0, SVG Export Plug-In . SVG Version: 6.00 Build 0)  -->
<svg version="1.1" id="Capa_1" xmlns="http://www.w3.org/2000/svg" xmlns:xlink="http://www.w3.org/1999/xlink" x="0px" y="0px"
	 viewBox="0 0 512 512" style="enable-background:new 0 0 512 512;" xml:space="preserve">
<style type="text/css">
	.st0{fill:#FE3333;}
</style>
<path class="st0" d="M192,200.4c-9,0-17.3,4.8-21.8,12.6c-3.4,5.8-10.9,7.8-16.7,4.5c-5.8-3.4-7.8-10.9-4.5-16.7
	c8.8-15.3,25.3-24.8,43-24.8c17.7,0,34.1,9.5,43,24.8c3.4,5.8,1.4,13.3-4.5,16.7c-1.9,1.1-4,1.6-6.1,1.6c-4.2,0-8.3-2.2-10.6-6.1
	C209.4,205.2,201,200.4,192,200.4z M256.3,330c-9,0-17.3-4.8-21.8-12.6c-3.4-5.8-10.9-7.8-16.7-4.5c-5.8,3.4-7.8,10.9-4.5,16.7
	c8.8,15.3,25.3,24.8,43,24.8c17.7,0,34.1-9.5,43-24.8c3.4-5.8,1.4-13.3-4.5-16.7c-5.8-3.4-13.3-1.4-16.7,4.5
	C273.7,325.2,265.3,330,256.3,330z M512,210.8v55.7c0,20.8-16.4,38.3-37.1,38.3h-22.6c-7.4,23.1-19.2,45.4-35,65.4
	c-26,32.8-61.9,56.7-101.7,68.7c-1.8,20.1-18.7,35.6-39.3,35.6h-39.9c-21.8,0-39.4-17.6-39.4-39.4c0-21.8,17.7-39.4,39.4-39.4h39.9
	c14.3,0,26.9,7.9,33.8,19.3c75.3-23.3,127.1-92.7,127.1-172.5c0-77.7-49.2-144.1-118.1-169.6c-17.9,22-40.4,40.3-65.6,53.3
	c-28.8,14.8-61.2,22.6-93.8,22.6c-3.8,0-7.6-0.1-11.4-0.3c-6.7-0.4-11.9-6.1-11.5-12.9c0.4-6.7,6.1-11.9,12.9-11.5
	c3.4,0.2,6.8,0.3,10.1,0.3c51.6,0,99.3-21.3,133.5-58.9c-11.4-2.4-23.3-3.7-35.4-3.8c-0.1,0-0.2,0-0.3,0c0,0-0.1,0-0.1,0
	c-0.1,0-0.2-0.1-0.3-0.1c0,0-0.1,0-0.1,0c-0.1,0-0.2,0-0.3,0c0,0-0.1,0-0.1,0c-0.1,0-0.1,0-0.2,0c-99.7,0-180.3,81.2-180.3,180.9
	v49.3c0,6.8-6,12.8-12.7,12.8H37.8C17,304.9,0,287.4,0,266.6v-55.7C0,194.4,10.6,180,26.2,175c6.4-2.1,13.4,1.5,15.4,7.9
	c2.1,6.4-1.5,13.3-7.9,15.4c-5.4,1.8-9.3,6.9-9.3,12.6v55.7c0,7.3,6.1,13.9,13.4,13.9h13.8v-37.7c0-113.2,91.6-205.4,204.7-205.4
	c0.1,0,0.1,0,0.2,0c0.1,0,0.1,0,0.2,0c0,0,0.1,0,0.1,0h0c0.1,0,0.1,0,0.2,0c0.1,0,0.1,0,0.2,0c0,0,0.1,0,0.1,0h0c0.1,0,0.1,0,0.2,0
	c0.1,0,0.1,0,0.2,0c0.1,0,0.1,0,0.2,0c0.1,0,0.1,0,0.2,0c0.1,0,0.1,0,0.2,0c0.1,0,0.1,0,0.2,0c0.1,0,0.1,0,0.2,0c0,0,0.1,0,0.2,0
	c0.1,0,0.1,0,0.2,0c0,0,0.1,0,0.2,0s0.1,0,0.1,0c0.1,0,0.1,0,0.2,0c0.1,0,0.1,0,0.2,0c0,0,0.1,0.1,0.1,0.1c0.1,0,0.1,0.1,0.2,0.1
	c0,0,0.1,0,0.2,0c0,0,0.1,0,0.1,0c0.1,0,0.1,0,0.2,0c0.1,0,0.1,0,0.1,0c0,0,0.1,0,0.1,0c0.1,0,0.1,0,0.2,0c0.1,0,0.1,0,0.1,0
	c0,0,0.1,0,0.1,0c0.1,0,0.1,0,0.2,0c0,0,0.1,0,0.1,0c0,0,0.1,0,0.1,0c0.1,0,0.1,0,0.2,0c0.1,0,0.1,0,0.1,0c0,0,0.1,0,0.1,0
	c0.1,0,0.1,0,0.2,0c0.1,0,0.1,0,0.2,0c0.1,0,0.1,0,0.1,0c0.1,0,0.1,0,0.2,0c0.1,0,0.1,0,0.2,0c0.1,0,0.1-0.1,0.1-0.1
	c0.1,0,0.2-0.1,0.3-0.1h0c0,0,0.1,0,0.1,0h0c18.7,1.4,37.1,4,54.8,9.6c0.2,0.1,0.5,0.4,0.7,0.5C401.7,74.1,461.6,151.8,461.6,243
	c0,12.6-1.1,25.2-3.3,37.4h16.6c7.3,0,12.7-6.5,12.7-13.9v-55.7c0-5.7-3.6-10.9-9-12.6c-6.4-2.1-9.7-9-7.7-15.4
	c2.1-6.4,8.8-10,15.2-7.9C501.7,180,512,194.4,512,210.8z M291.3,435.4c0-1-0.1-1.8-0.3-2.7c0-0.1-0.1-0.3-0.1-0.5
	c-1.5-6.7-7.5-11.9-14.6-11.9h-39.9c-8.3,0-15,6.7-15,14.9c0,8.3,6.7,14.9,15,14.9h39.9C284.5,450.2,291.3,443.7,291.3,435.4z
	 M282.1,217.4c5.8,3.4,13.3,1.4,16.7-4.5c4.5-7.8,12.9-12.6,21.8-12.6s17.3,4.8,21.8,12.6c2.3,3.9,6.4,6.1,10.6,6.1
	c2.1,0,4.2-0.5,6.1-1.6c5.8-3.4,7.8-10.9,4.5-16.7c-8.9-15.3-25.3-24.8-43-24.8c-17.7,0-34.1,9.5-43,24.8
	C274.3,206.6,276.3,214.1,282.1,217.4z"/>
</svg>
