<?xml version="1.0" encoding="utf-8"?>
<!-- Generator: Adobe Illustrator 21.1.0, SVG Export Plug-In . SVG Version: 6.00 Build 0)  -->
<svg version="1.1" id="Capa_1" xmlns="http://www.w3.org/2000/svg" xmlns:xlink="http://www.w3.org/1999/xlink" x="0px" y="0px"
	 viewBox="0 0 657 512" style="enable-background:new 0 0 657 512;" xml:space="preserve">
<style type="text/css">
	.st0{fill:#CCCCCC;}
	.st1{fill:none;}
</style>
<g>
	<path class="st0" d="M239,190.8H68c-6.9,0-12.5-5.6-12.5-12.5s5.6-12.5,12.5-12.5h171c6.9,0,12.5,5.6,12.5,12.5
		S245.9,190.8,239,190.8z"/>
</g>
<g>
	<path class="st0" d="M211.7,240.2h-171c-6.9,0-12.5-5.6-12.5-12.5s5.6-12.5,12.5-12.5h171c6.9,0,12.5,5.6,12.5,12.5
		S218.6,240.2,211.7,240.2z"/>
</g>
<g>
	<path class="st0" d="M209,289.5H13.3c-6.9,0-12.5-5.6-12.5-12.5s5.6-12.5,12.5-12.5H209c6.9,0,12.5,5.6,12.5,12.5
		S215.9,289.5,209,289.5z"/>
</g>
<g>
	<path class="st1" d="M555.8,355.9c-13.7,0-24.9,11.2-24.9,24.9c0,13.7,11.2,24.9,24.9,24.9c13.7,0,24.9-11.2,24.9-24.9
		S569.6,355.9,555.8,355.9z"/>
	<path class="st1" d="M259,355.9c-13.7,0-24.9,11.2-24.9,24.9c0,13.7,11.2,24.9,24.9,24.9s24.9-11.2,24.9-24.9
		S272.8,355.9,259,355.9z"/>
	<path class="st1" d="M561,158.7h-70.3v205h17.5c7-19.5,25.7-33.6,47.6-33.6c21.9,0,40.7,14.1,47.6,33.6h27.7h0.1V243.6
		C631.3,191.2,604.3,158.7,561,158.7z"/>
	<path class="st0" d="M629.1,161.5C612.1,143,587.8,133,560.9,133h-70.3V93.5c0-7.1-5.8-12.9-12.9-12.9H157.9
		c-7.1,0-12.9,5.8-12.9,12.9v44c0,7.1,5.8,12.9,12.9,12.9h0c7.1,0,12.9-5.8,12.9-12.9v-31.1h294.1v39.5v218H306.7
		c-7-19.5-25.7-33.6-47.6-33.6s-40.7,14.1-47.6,33.6h-40.7v-41.9c0-7.1-5.8-12.9-12.9-12.9h0c-7.1,0-12.9,5.8-12.9,12.9v54.7
		c0,7.1,5.8,12.9,12.9,12.9h51.3c4.2,23.8,24.9,41.9,49.9,41.9c25,0,45.7-18.1,49.9-41.9h168.8H506c4.2,23.8,24.9,41.9,49.9,41.9
		c25,0,45.7-18.1,49.9-41.9h38.4c7.1,0,12.9-5.8,12.9-12.9v-133C656.9,209.6,647.3,181.1,629.1,161.5z M259,405.6
		c-13.7,0-24.9-11.2-24.9-24.9c0-13.7,11.2-24.9,24.9-24.9c13.7,0,24.9,11.2,24.9,24.9S272.8,405.6,259,405.6z M555.8,405.6
		c-13.7,0-24.9-11.2-24.9-24.9c0-13.7,11.2-24.9,24.9-24.9c13.7,0,24.9,11.2,24.9,24.9S569.6,405.6,555.8,405.6z M631.3,363.7h-0.1
		h-27.7c-7-19.5-25.7-33.6-47.6-33.6c-21.9,0-40.7,14.1-47.6,33.6h-17.5v-205H561c43.3,0,70.3,32.5,70.3,84.9V363.7z"/>
</g>
</svg>
