<?xml version="1.0" encoding="utf-8"?>
<!-- Generator: Adobe Illustrator 21.1.0, SVG Export Plug-In . SVG Version: 6.00 Build 0)  -->
<svg version="1.1" id="Capa_1" xmlns="http://www.w3.org/2000/svg" xmlns:xlink="http://www.w3.org/1999/xlink" x="0px" y="0px"
	 viewBox="0 0 657 512" style="enable-background:new 0 0 657 512;" xml:space="preserve">
<style type="text/css">
	.st0{fill:#FE3333;}
</style>
<g>
	<path class="st0" d="M239,190.8H68c-6.9,0-12.5-5.6-12.5-12.5s5.6-12.5,12.5-12.5h171c6.9,0,12.5,5.6,12.5,12.5
		S245.9,190.8,239,190.8z"/>
</g>
<g>
	<path class="st0" d="M211.7,240.2h-171c-6.9,0-12.5-5.6-12.5-12.5s5.6-12.5,12.5-12.5h171c6.9,0,12.5,5.6,12.5,12.5
		S218.6,240.2,211.7,240.2z"/>
</g>
<g>
	<path class="st0" d="M209,289.5H13.3c-6.9,0-12.5-5.6-12.5-12.5s5.6-12.5,12.5-12.5H209c6.9,0,12.5,5.6,12.5,12.5
		S215.9,289.5,209,289.5z"/>
</g>
<g>
	<path class="st0" d="M580.4,384.4c-1.8,12-12.2,21.3-24.6,21.3c-12.5,0-22.9-9.3-24.6-21.3c1.8,12,12.2,21.2,24.6,21.2
		C568.3,405.6,578.6,396.4,580.4,384.4z"/>
	<path class="st0" d="M283.2,386.6c-2.6,10.9-12.5,19.1-24.2,19.1c-12.5,0-22.9-9.3-24.6-21.3c1.8,12,12.2,21.2,24.6,21.2
		C270.8,405.6,280.5,397.5,283.2,386.6z"/>
	<rect x="490.7" y="158.7" class="st0" width="0.1" height="205"/>
	<path class="st0" d="M603.5,363.7L603.5,363.7c-6.7-18.6-24.1-32.3-44.6-33.5C579.5,331.4,596.8,345.1,603.5,363.7z"/>
	<path class="st0" d="M629.1,161.5c-17-18.5-41.3-28.5-68.2-28.5h-70.3V93.5c0-7.1-5.8-12.9-12.9-12.9H157.9
		c-7.1,0-12.9,5.8-12.9,12.9v44c0,7.1,5.8,12.9,12.9,12.9c3.5,0,6.8-1.5,9.1-3.8c2.3-2.3,3.8-5.6,3.8-9.1v-31.1h294.1v257.5H306.7
		c-7-19.5-25.7-33.6-47.6-33.6c-21.9,0-40.7,14.1-47.6,33.6h-40.7V322c0-7.1-5.8-12.9-12.9-12.9c-3.6,0-6.8,1.5-9.1,3.8
		c-2.3,2.3-3.8,5.6-3.8,9.1v54.7c0,7.1,5.8,12.9,12.9,12.9h51.3c4.2,23.8,24.9,41.9,49.9,41.9s45.7-18.1,49.9-41.9h197
		c4.2,23.8,24.9,41.9,49.9,41.9s45.7-18.1,49.9-41.9h38.4c7.1,0,12.9-5.8,12.9-12.9v-133C656.9,209.6,647.3,181.1,629.1,161.5z
		 M283.9,382c0,0.4,0,0.8-0.1,1.2c0,0.4-0.1,0.8-0.2,1.2c-0.1,0.4-0.1,0.7-0.2,1.1s-0.2,0.7-0.2,1.1c-2.7,10.9-12.5,19-24.2,19
		c-12.4,0-22.8-9.2-24.6-21.2c-0.1-0.4-0.1-0.8-0.2-1.2c0-0.4-0.1-0.8-0.1-1.2c0-0.4,0-0.8,0-1.3c0-0.4,0-0.8,0-1.2
		c0.6-13.2,11.6-23.7,24.9-23.7s24.3,10.6,24.9,23.7c0,0.4,0,0.8,0,1.2C283.9,381.1,283.9,381.5,283.9,382z M580.7,382
		c0,0.4,0,0.8-0.1,1.2c0,0.4-0.1,0.8-0.2,1.2c-0.1,0.8-0.3,1.5-0.4,2.2c-2.7,10.8-12.5,19-24.2,19c-12.4,0-22.8-9.2-24.6-21.2
		c-0.1-0.4-0.1-0.8-0.1-1.2c0-0.4-0.1-0.8-0.1-1.2c0-0.4,0-0.8,0-1.3c0-0.4,0-0.8,0-1.2c0.6-13.2,11.6-23.7,24.9-23.7
		s24.3,10.6,24.9,23.7c0,0.4,0,0.8,0,1.2C580.7,381.1,580.7,381.5,580.7,382z M631.3,363.7h-27.8c-0.2-0.6-0.5-1.3-0.7-1.9
		c-0.2-0.5-0.4-1-0.7-1.5c-0.5-1.1-1-2.1-1.5-3.1c-0.2-0.3-0.4-0.7-0.6-1c-0.1-0.3-0.3-0.5-0.4-0.8c-0.3-0.4-0.5-0.9-0.8-1.3
		c-0.3-0.5-0.6-0.9-0.9-1.4c0-0.1-0.1-0.1-0.1-0.2c-0.2-0.3-0.4-0.6-0.7-0.9c-0.3-0.4-0.5-0.8-0.8-1.2c-0.3-0.4-0.5-0.7-0.8-1.1
		c0-0.1-0.1-0.1-0.2-0.2c-0.3-0.3-0.5-0.7-0.8-1c-0.3-0.3-0.5-0.6-0.8-0.9c-0.1-0.1-0.2-0.3-0.3-0.4c-0.2-0.3-0.5-0.5-0.7-0.8
		c-0.2-0.2-0.4-0.5-0.6-0.7c-0.3-0.3-0.6-0.6-0.9-0.9c0-0.1-0.1-0.1-0.2-0.2c-0.3-0.3-0.7-0.7-1-1c-0.1-0.1-0.3-0.3-0.4-0.4
		c-0.3-0.2-0.5-0.5-0.8-0.7c-0.2-0.2-0.4-0.4-0.7-0.6c-0.2-0.2-0.5-0.4-0.7-0.6c-0.2-0.2-0.4-0.3-0.6-0.5c-0.3-0.3-0.7-0.5-1-0.8
		c-0.1-0.1-0.2-0.2-0.3-0.2c-0.3-0.3-0.6-0.5-1-0.7c-0.2-0.2-0.4-0.3-0.7-0.5c-0.3-0.2-0.6-0.4-0.9-0.6c-0.1-0.1-0.3-0.2-0.5-0.3
		c-0.4-0.2-0.8-0.5-1.1-0.7c-0.1,0-0.2-0.1-0.3-0.1c-0.4-0.3-0.9-0.5-1.3-0.7c-0.1-0.1-0.2-0.1-0.3-0.2c-0.4-0.2-0.8-0.4-1.1-0.6
		c-0.2-0.1-0.4-0.2-0.5-0.3c-0.4-0.2-0.8-0.4-1.3-0.6c-0.5-0.2-0.9-0.4-1.4-0.6c-0.3-0.1-0.6-0.2-0.9-0.3c-0.3-0.1-0.6-0.2-0.9-0.4
		c-0.2-0.1-0.5-0.2-0.7-0.3c-0.3-0.1-0.7-0.2-1-0.4c-1.4-0.5-2.8-0.8-4.2-1.2c-0.3-0.1-0.6-0.1-1-0.2c-0.1,0-0.1,0-0.2,0
		c-1.8-0.4-3.6-0.7-5.5-0.8c-0.6-0.1-1.3-0.1-1.9-0.2c-1-0.1-2-0.1-3-0.1c-1,0-2.1,0-3.1,0.1c-20.6,1.2-38,14.9-44.5,33.5h-17.5
		v-205H561c3.5,0,6.9,0.2,10.1,0.6c0.9,0.1,1.8,0.2,2.7,0.4c0.6,0.1,1.1,0.2,1.7,0.3c0.3,0.1,0.7,0.1,1,0.2c0.3,0,0.6,0.1,0.8,0.2
		c0.8,0.2,1.5,0.3,2.3,0.5c4.3,1.1,8.4,2.6,12.3,4.4c0.9,0.4,1.9,0.9,2.8,1.4c1.1,0.6,2.2,1.3,3.3,1.9c0.5,0.3,0.9,0.6,1.4,0.9
		c0.7,0.5,1.3,0.9,2,1.4c1.3,0.9,2.5,1.9,3.6,2.9c0.4,0.4,0.9,0.8,1.3,1.2c0.9,0.8,1.7,1.6,2.5,2.4c1.7,1.7,3.2,3.5,4.7,5.3
		c11.5,14.6,17.9,35.4,17.9,60.8V363.7z"/>
</g>
</svg>
